<mxfile host="app.diagrams.net" modified="2023-04-20T09:59:01.093Z" agent="Mozilla/5.0 (Windows NT 10.0; Win64; x64) AppleWebKit/537.36 (KHTML, like Gecko) Chrome/109.0.0.0 Safari/537.36" etag="cSnhflNzm506G3bmATmO" version="21.2.1" type="device">
  <diagram name="第 1 页" id="X_uiF5wOMN9EDFQbkVxp">
    <mxGraphModel dx="1434" dy="708" grid="1" gridSize="10" guides="1" tooltips="1" connect="1" arrows="1" fold="1" page="1" pageScale="1" pageWidth="827" pageHeight="1169" math="0" shadow="0">
      <root>
        <mxCell id="0" />
        <mxCell id="1" parent="0" />
        <mxCell id="mt0zbuiLpcm1aBGCFGq0-1" value="" style="rounded=0;whiteSpace=wrap;html=1;fillColor=#cce5ff;strokeColor=#36393d;" vertex="1" parent="1">
          <mxGeometry x="200" y="300" width="320" height="40" as="geometry" />
        </mxCell>
        <mxCell id="mt0zbuiLpcm1aBGCFGq0-2" value="" style="rounded=0;whiteSpace=wrap;html=1;fillColor=#ffcc99;strokeColor=#36393d;" vertex="1" parent="1">
          <mxGeometry x="200" y="340" width="320" height="40" as="geometry" />
        </mxCell>
        <mxCell id="mt0zbuiLpcm1aBGCFGq0-3" value="" style="rounded=0;whiteSpace=wrap;html=1;fillColor=#ffcccc;strokeColor=#36393d;" vertex="1" parent="1">
          <mxGeometry x="200" y="380" width="320" height="40" as="geometry" />
        </mxCell>
        <mxCell id="mt0zbuiLpcm1aBGCFGq0-4" value="" style="rounded=0;whiteSpace=wrap;html=1;fillColor=#cdeb8b;strokeColor=#36393d;" vertex="1" parent="1">
          <mxGeometry x="200" y="420" width="320" height="40" as="geometry" />
        </mxCell>
        <mxCell id="mt0zbuiLpcm1aBGCFGq0-5" value="UI" style="text;html=1;strokeColor=none;fillColor=none;align=center;verticalAlign=middle;whiteSpace=wrap;rounded=0;fontStyle=1" vertex="1" parent="1">
          <mxGeometry x="130" y="310" width="60" height="30" as="geometry" />
        </mxCell>
        <mxCell id="mt0zbuiLpcm1aBGCFGq0-6" value="应用层" style="text;html=1;strokeColor=none;fillColor=none;align=center;verticalAlign=middle;whiteSpace=wrap;rounded=0;fontStyle=1" vertex="1" parent="1">
          <mxGeometry x="130" y="350" width="60" height="30" as="geometry" />
        </mxCell>
        <mxCell id="mt0zbuiLpcm1aBGCFGq0-7" value="领域层" style="text;html=1;strokeColor=none;fillColor=none;align=center;verticalAlign=middle;whiteSpace=wrap;rounded=0;fontStyle=1" vertex="1" parent="1">
          <mxGeometry x="130" y="385" width="60" height="30" as="geometry" />
        </mxCell>
        <mxCell id="mt0zbuiLpcm1aBGCFGq0-8" value="基础设施层" style="text;html=1;strokeColor=none;fillColor=none;align=center;verticalAlign=middle;whiteSpace=wrap;rounded=0;fontStyle=1" vertex="1" parent="1">
          <mxGeometry x="120" y="425" width="70" height="30" as="geometry" />
        </mxCell>
        <mxCell id="mt0zbuiLpcm1aBGCFGq0-9" value="" style="endArrow=none;html=1;rounded=0;exitX=0.129;exitY=-0.001;exitDx=0;exitDy=0;exitPerimeter=0;" edge="1" parent="1" source="mt0zbuiLpcm1aBGCFGq0-3">
          <mxGeometry width="50" height="50" relative="1" as="geometry">
            <mxPoint x="241" y="420" as="sourcePoint" />
            <mxPoint x="241" y="260" as="targetPoint" />
          </mxGeometry>
        </mxCell>
        <mxCell id="mt0zbuiLpcm1aBGCFGq0-10" value="" style="endArrow=none;html=1;rounded=0;exitX=0.25;exitY=1;exitDx=0;exitDy=0;" edge="1" parent="1" source="mt0zbuiLpcm1aBGCFGq0-3">
          <mxGeometry width="50" height="50" relative="1" as="geometry">
            <mxPoint x="280" y="420" as="sourcePoint" />
            <mxPoint x="280" y="260" as="targetPoint" />
          </mxGeometry>
        </mxCell>
        <mxCell id="mt0zbuiLpcm1aBGCFGq0-11" value="" style="endArrow=none;html=1;rounded=0;exitX=0.376;exitY=1.008;exitDx=0;exitDy=0;exitPerimeter=0;" edge="1" parent="1" source="mt0zbuiLpcm1aBGCFGq0-2">
          <mxGeometry width="50" height="50" relative="1" as="geometry">
            <mxPoint x="320" y="420" as="sourcePoint" />
            <mxPoint x="320" y="260" as="targetPoint" />
          </mxGeometry>
        </mxCell>
        <mxCell id="mt0zbuiLpcm1aBGCFGq0-12" value="" style="endArrow=none;html=1;rounded=0;exitX=0.128;exitY=0.99;exitDx=0;exitDy=0;exitPerimeter=0;" edge="1" parent="1">
          <mxGeometry width="50" height="50" relative="1" as="geometry">
            <mxPoint x="359.79999999999995" y="460" as="sourcePoint" />
            <mxPoint x="359.79999999999995" y="260" as="targetPoint" />
          </mxGeometry>
        </mxCell>
        <mxCell id="mt0zbuiLpcm1aBGCFGq0-13" value="" style="endArrow=none;html=1;rounded=0;" edge="1" parent="1">
          <mxGeometry width="50" height="50" relative="1" as="geometry">
            <mxPoint x="400" y="380" as="sourcePoint" />
            <mxPoint x="400" y="260" as="targetPoint" />
          </mxGeometry>
        </mxCell>
        <mxCell id="mt0zbuiLpcm1aBGCFGq0-14" value="" style="endArrow=none;html=1;rounded=0;exitX=0.75;exitY=1;exitDx=0;exitDy=0;" edge="1" parent="1" source="mt0zbuiLpcm1aBGCFGq0-3">
          <mxGeometry width="50" height="50" relative="1" as="geometry">
            <mxPoint x="440" y="460" as="sourcePoint" />
            <mxPoint x="440" y="260" as="targetPoint" />
          </mxGeometry>
        </mxCell>
        <mxCell id="mt0zbuiLpcm1aBGCFGq0-15" value="" style="endArrow=none;html=1;rounded=0;exitX=0.878;exitY=0.017;exitDx=0;exitDy=0;exitPerimeter=0;" edge="1" parent="1" source="mt0zbuiLpcm1aBGCFGq0-3">
          <mxGeometry width="50" height="50" relative="1" as="geometry">
            <mxPoint x="480" y="420" as="sourcePoint" />
            <mxPoint x="480" y="260" as="targetPoint" />
          </mxGeometry>
        </mxCell>
        <mxCell id="mt0zbuiLpcm1aBGCFGq0-16" value="" style="endArrow=none;html=1;rounded=0;exitX=0.128;exitY=0.99;exitDx=0;exitDy=0;exitPerimeter=0;" edge="1" parent="1">
          <mxGeometry width="50" height="50" relative="1" as="geometry">
            <mxPoint x="520" y="460" as="sourcePoint" />
            <mxPoint x="520" y="260" as="targetPoint" />
          </mxGeometry>
        </mxCell>
        <mxCell id="mt0zbuiLpcm1aBGCFGq0-17" value="" style="endArrow=none;html=1;rounded=0;exitX=0.128;exitY=0.99;exitDx=0;exitDy=0;exitPerimeter=0;" edge="1" parent="1">
          <mxGeometry width="50" height="50" relative="1" as="geometry">
            <mxPoint x="200" y="460" as="sourcePoint" />
            <mxPoint x="200" y="260" as="targetPoint" />
          </mxGeometry>
        </mxCell>
        <mxCell id="mt0zbuiLpcm1aBGCFGq0-18" value="用例 1" style="text;html=1;strokeColor=none;fillColor=none;align=center;verticalAlign=middle;whiteSpace=wrap;rounded=0;fontStyle=1" vertex="1" parent="1">
          <mxGeometry x="200" y="270" width="40" height="30" as="geometry" />
        </mxCell>
        <mxCell id="mt0zbuiLpcm1aBGCFGq0-19" value="用例 2" style="text;html=1;strokeColor=none;fillColor=none;align=center;verticalAlign=middle;whiteSpace=wrap;rounded=0;fontStyle=1" vertex="1" parent="1">
          <mxGeometry x="240" y="270" width="40" height="30" as="geometry" />
        </mxCell>
        <mxCell id="mt0zbuiLpcm1aBGCFGq0-20" value="用例 3" style="text;html=1;strokeColor=none;fillColor=none;align=center;verticalAlign=middle;whiteSpace=wrap;rounded=0;fontStyle=1" vertex="1" parent="1">
          <mxGeometry x="280" y="270" width="40" height="30" as="geometry" />
        </mxCell>
        <mxCell id="mt0zbuiLpcm1aBGCFGq0-21" value="用例 4" style="text;html=1;strokeColor=none;fillColor=none;align=center;verticalAlign=middle;whiteSpace=wrap;rounded=0;fontStyle=1" vertex="1" parent="1">
          <mxGeometry x="320" y="270" width="40" height="30" as="geometry" />
        </mxCell>
        <mxCell id="mt0zbuiLpcm1aBGCFGq0-22" value="用例 5" style="text;html=1;strokeColor=none;fillColor=none;align=center;verticalAlign=middle;whiteSpace=wrap;rounded=0;fontStyle=1" vertex="1" parent="1">
          <mxGeometry x="360" y="270" width="40" height="30" as="geometry" />
        </mxCell>
        <mxCell id="mt0zbuiLpcm1aBGCFGq0-23" value="用例 6" style="text;html=1;strokeColor=none;fillColor=none;align=center;verticalAlign=middle;whiteSpace=wrap;rounded=0;fontStyle=1" vertex="1" parent="1">
          <mxGeometry x="400" y="270" width="40" height="30" as="geometry" />
        </mxCell>
        <mxCell id="mt0zbuiLpcm1aBGCFGq0-24" value="用例 7" style="text;html=1;strokeColor=none;fillColor=none;align=center;verticalAlign=middle;whiteSpace=wrap;rounded=0;fontStyle=1" vertex="1" parent="1">
          <mxGeometry x="440" y="270" width="40" height="30" as="geometry" />
        </mxCell>
        <mxCell id="mt0zbuiLpcm1aBGCFGq0-25" value="用例 8" style="text;html=1;strokeColor=none;fillColor=none;align=center;verticalAlign=middle;whiteSpace=wrap;rounded=0;fontStyle=1" vertex="1" parent="1">
          <mxGeometry x="480" y="270" width="40" height="30" as="geometry" />
        </mxCell>
      </root>
    </mxGraphModel>
  </diagram>
</mxfile>
